<svg width="92" height="92" viewBox="0 0 92 92" fill="none" xmlns="http://www.w3.org/2000/svg">
<path fill-rule="evenodd" clip-rule="evenodd" d="M91 46C91 70.8531 70.8531 91 46 91C21.1469 91 1 70.8531 1 46C1 21.1469 21.1469 1 46 1C70.8531 1 91 21.1469 91 46Z" stroke="#EF3124" stroke-width="2"/>
<path d="M17 39.0067C17 34.2028 20.8031 32 24.7095 32C28.9062 32 31.6404 34.7173 31.6404 38.4937C31.6404 41.5966 29.7537 43.6797 24.644 48.7078L17.0748 56.7009V57H34" stroke="#EF3124" stroke-width="2"/>
<path d="M40 51.2907C40.7868 54.2532 44.0073 57 47.748 57C51.7242 57 55.6147 54.2301 55.993 49.3148C56.1439 45.7391 53.8563 41.1109 47.9069 40.7836C45.3813 40.8257 43.4303 41.5826 41.6535 43.731C41.3874 43.8837 41.096 44.1224 40.7793 44.4471L42.1012 32.0328L54.9576 32" stroke="#EF3124" stroke-width="2"/>
<path d="M71.5 36.5H70.5V51.5H71.5V36.5Z" stroke="#EF3124"/>
<path d="M78.5 44.5V43.5H63.5V44.5H78.5Z" stroke="#EF3124"/>
</svg>
