<svg width="92" height="92" viewBox="0 0 92 92" fill="none" xmlns="http://www.w3.org/2000/svg">
<path fill-rule="evenodd" clip-rule="evenodd" d="M19 45V58H30C33.3137 58 36 55.3137 36 52V51C36 47.6863 33.3137 45 30 45H19Z" stroke="#EF3124" stroke-width="2"/>
<path fill-rule="evenodd" clip-rule="evenodd" d="M19 32.905V45.0951H28.4286C31.7423 45.0951 34.4286 42.4088 34.4286 39.0951V38.905C34.4286 35.5913 31.7423 32.905 28.4286 32.905H19Z" stroke="#EF3124" stroke-width="2"/>
<path fill-rule="evenodd" clip-rule="evenodd" d="M70.5002 58.5H71.5002V32.5H70.5002V32.8574L62.7842 37.4836L63.2266 38.2793L70.5002 33.9183V58.5Z" stroke="#EF3124"/>
<path d="M56 59V45.7659C56 42.0292 53.0749 39 49.4667 39H48.5333C44.9251 39 42 40.9557 42 44.6924" stroke="#EF3124" stroke-width="2"/>
<path fill-rule="evenodd" clip-rule="evenodd" d="M48.473 58C44.6001 58 42 56.5684 42 53.2589C42 49.9493 45.679 48.0013 49.5518 48.0013C56.5858 48.0013 55.9873 47.8945 55.9873 49.6311C55.9873 54.0485 52.4277 58 48.473 58Z" stroke="#EF3124" stroke-width="2"/>
<path fill-rule="evenodd" clip-rule="evenodd" d="M91 46C91 70.8531 70.8531 91 46 91C21.1469 91 1 70.8531 1 46C1 21.1469 21.1469 1 46 1C70.8531 1 91 21.1469 91 46Z" stroke="#EF3124" stroke-width="2"/>
</svg>
