<svg width="92" height="92" viewBox="0 0 92 92" fill="none" xmlns="http://www.w3.org/2000/svg">
<path fill-rule="evenodd" clip-rule="evenodd" d="M91 46.0005C91 70.8536 70.8531 91.0005 46 91.0005C21.1469 91.0005 1 70.8536 1 46.0005C1 21.1474 21.1469 1.00049 46 1.00049C70.8531 1.00049 91 21.1474 91 46.0005Z" stroke="#EF3124" stroke-width="2"/>
<path opacity="0.985584" fill-rule="evenodd" clip-rule="evenodd" d="M36 39V35H28V39H30V53H28V57H36V53H34V39H36Z" stroke="#EF3124" stroke-width="2"/>
<path opacity="0.985584" fill-rule="evenodd" clip-rule="evenodd" d="M64 39V35H56V39H58V53H56V57H64V53H62V39H64Z" stroke="#EF3124" stroke-width="2"/>
<path opacity="0.985584" fill-rule="evenodd" clip-rule="evenodd" d="M50 39V35H42V39H44V53H42V57H50V53H48V39H50Z" stroke="#EF3124" stroke-width="2"/>
<path fill-rule="evenodd" clip-rule="evenodd" d="M25 31.5707V35.0001H67V31.5707L46 19.1616L25 31.5707Z" stroke="#EF3124" stroke-width="2"/>
<path d="M46 31C47.6569 31 49 29.6569 49 28C49 26.3431 47.6569 25 46 25C44.3431 25 43 26.3431 43 28C43 29.6569 44.3431 31 46 31Z" stroke="#F03427" stroke-width="2"/>
<path d="M67 57H25V65H67V57Z" stroke="#EF3124" stroke-width="2"/>
</svg>
