<?xml version="1.0" encoding="UTF-8"?>
<svg width="35px" height="35px" viewBox="0 0 35 35" version="1.1" xmlns="http://www.w3.org/2000/svg" xmlns:xlink="http://www.w3.org/1999/xlink">
    <!-- Generator: Sketch 54.1 (76490) - https://sketchapp.com -->
    <title>european-union</title>
    <desc>Created with Sketch.</desc>
    <g id="Page-1" stroke="none" stroke-width="1" fill="none" fill-rule="evenodd">
        <g id="ad_exchange_2_1.2" transform="translate(-695.000000, -323.000000)">
            <g id="Block-1" transform="translate(0.000000, 100.000000)">
                <g id="Group-11" transform="translate(655.000000, 125.000000)">
                    <g id="european-union" transform="translate(40.000000, 98.000000)">
                        <circle id="Oval" fill="#0052B4" cx="17.5" cy="17.5" r="17.5"></circle>
                        <g id="Group" transform="translate(6.835938, 6.835938)" fill="#FFDA44">
                            <polygon id="Path" points="10.8000977 0 11.3667285 1.7437793 13.200127 1.7437793 11.7167969 2.82146484 12.2834277 4.56524414 10.8000977 3.48749023 9.31669922 4.56524414 9.88333008 2.82146484 8.4 1.7437793 10.2334668 1.7437793"></polygon>
                            <polygon id="Path" points="3.26395508 3.26402344 4.89774414 4.09636719 6.19417969 2.8 5.90727539 4.61083984 7.54099609 5.44325195 5.73008789 5.73008789 5.44325195 7.54106445 4.61083984 5.90734375 2.8 6.19424805 4.09643555 4.8978125"></polygon>
                            <polygon id="Path" points="0 10.8000977 1.7437793 10.2334668 1.7437793 8.4 2.82139648 9.88339844 4.56524414 9.31676758 3.48742188 10.8000977 4.56524414 12.2834277 2.82139648 11.7168652 1.7437793 13.2001953 1.7437793 11.3667285"></polygon>
                            <polygon id="Path" points="3.26395508 18.2769727 4.09636719 16.6431836 2.8 15.346748 4.6109082 15.6337207 5.44318359 14 5.73008789 15.8109082 7.54092773 16.0977441 5.90741211 16.9301562 6.19417969 18.7409961 4.89774414 17.4445605"></polygon>
                            <polygon id="Path" points="10.8000977 21.3651074 10.2333984 19.6213281 8.4 19.6213281 9.88339844 18.5436426 9.31669922 16.8 10.8000977 17.8776172 12.2834277 16.8 11.7167969 18.5436426 13.200127 19.6213281 11.3666602 19.6213281"></polygon>
                            <polygon id="Path" points="18.2769043 18.2769727 16.6431836 17.4446289 15.3466797 18.7410645 15.633584 16.9300879 14 16.0977441 15.8108398 15.8109082 16.0976758 14 16.9300195 15.6337207 18.7408594 15.346748 17.4444238 16.6433203"></polygon>
                            <polygon id="Path" points="21.3651074 10.8000977 19.6213281 11.3667285 19.6213281 13.2001953 18.5436426 11.7167969 16.8 12.2834277 17.8776855 10.8000977 16.8 9.31676758 18.5437109 9.88339844 19.6213281 8.4 19.6213281 10.2335352"></polygon>
                            <polygon id="Path" points="18.2769043 3.26395508 17.4444922 4.89774414 18.7409277 6.19417969 16.9299512 5.90720703 16.0976758 7.54092773 15.8108398 5.73001953 14 5.44311523 15.633584 4.61077148 15.3466797 2.8 16.643252 4.09636719"></polygon>
                        </g>
                    </g>
                </g>
            </g>
        </g>
    </g>
</svg>