<svg width="150" height="150" viewBox="0 0 150 150" fill="none" xmlns="http://www.w3.org/2000/svg">
<path fill-rule="evenodd" clip-rule="evenodd" d="M148.37 75.0001C148.37 115.521 115.522 148.37 75.0004 148.37C34.479 148.37 1.63086 115.521 1.63086 75.0001C1.63086 34.4787 34.479 1.63049 75.0004 1.63049C115.522 1.63049 148.37 34.4787 148.37 75.0001Z" stroke="#EF3124" stroke-width="2"/>
<path d="M83.1521 72.3483C93.9577 72.3483 102.717 63.5887 102.717 52.7831C102.717 41.9775 93.9577 33.2179 83.1521 33.2179C72.3466 33.2179 63.5869 41.9775 63.5869 52.7831C63.5869 63.5887 72.3466 72.3483 83.1521 72.3483Z" stroke="#EF3124" stroke-width="2"/>
<path d="M60.1038 83.2946C61.9406 82.9792 59.285 82.9736 66.155 83.5879C76.4599 84.5094 83.0838 85.8598 86.2162 87.2148C89.3486 88.5697 94.1905 90.5048 90.9847 92.4371C81.59 98.1097 76.4166 95.6643 68.6662 94.2181" stroke="#EF3124" stroke-width="2" stroke-linecap="round" stroke-linejoin="round"/>
<path d="M55.4355 103.9L83.8434 109.032L117.392 84.0447C113.975 79.5268 109.733 78.8944 104.668 82.1473C99.6019 85.4002 95.5593 88.1023 92.5398 90.2534" stroke="#EF3124" stroke-width="2" stroke-linecap="round" stroke-linejoin="round"/>
<path fill-rule="evenodd" clip-rule="evenodd" d="M39.1309 76.6305V109.103H52.804L60.346 76.6305H39.1309Z" stroke="#EF3124" stroke-width="2"/>
<path d="M76.5576 58.9405L90.2814 45.3676" stroke="#EF3124" stroke-width="2" stroke-linecap="round"/>
<path d="M78.2609 48.6981C80.0618 48.6981 81.5217 47.2542 81.5217 45.4731C81.5217 43.6919 80.0618 42.248 78.2609 42.248C76.4599 42.248 75 43.6919 75 45.4731C75 47.2542 76.4599 48.6981 78.2609 48.6981Z" stroke="#EF3124" stroke-width="2"/>
<path d="M88.0441 63.2108C89.845 63.2108 91.3049 61.7669 91.3049 59.9858C91.3049 58.2046 89.845 56.7607 88.0441 56.7607C86.2431 56.7607 84.7832 58.2046 84.7832 59.9858C84.7832 61.7669 86.2431 63.2108 88.0441 63.2108Z" stroke="#EF3124" stroke-width="2"/>
</svg>
