<svg width="150" height="150" viewBox="0 0 150 150" fill="none" xmlns="http://www.w3.org/2000/svg">
<path fill-rule="evenodd" clip-rule="evenodd" d="M148.37 75.0001C148.37 115.521 115.521 148.37 74.9999 148.37C34.4786 148.37 1.63037 115.521 1.63037 75.0001C1.63037 34.4787 34.4786 1.63049 74.9999 1.63049C115.521 1.63049 148.37 34.4787 148.37 75.0001Z" stroke="#EF3124" stroke-width="2"/>
<path fill-rule="evenodd" clip-rule="evenodd" d="M32.6085 53.8043C33.4785 53.8043 34.1895 54.4858 34.2365 55.3441C34.273 55.4018 34.4275 55.6112 34.9755 55.9351C35.7722 56.4058 37.0331 56.8863 38.7345 57.3117C42.1118 58.156 46.864 58.6956 52.1737 58.6956C57.4834 58.6956 62.2356 58.156 65.6129 57.3117C67.3142 56.8863 68.5752 56.4058 69.3718 55.9351C69.9198 55.6112 70.0744 55.4018 70.1109 55.3441C70.158 54.4858 70.8689 53.8043 71.7389 53.8043C72.6394 53.8043 73.3693 54.5343 73.3693 55.4348C73.3693 57.0424 72.1054 58.1072 71.031 58.7423C69.8474 59.4419 68.2433 60.0153 66.4038 60.4752C62.6999 61.4012 57.6696 61.9565 52.1737 61.9565C46.6778 61.9565 41.6474 61.4012 37.9436 60.4752C36.1041 60.0153 34.4999 59.4419 33.3164 58.7423C32.2419 58.1072 30.978 57.0424 30.978 55.4348C30.978 54.5343 31.708 53.8043 32.6085 53.8043ZM34.2365 65.1267C34.1895 64.2685 33.4785 63.5869 32.6085 63.5869C31.708 63.5869 30.978 64.3169 30.978 65.2174C30.978 66.825 32.2419 67.8898 33.3164 68.5249C34.4999 69.2245 36.1041 69.7979 37.9436 70.2579C41.6474 71.1838 46.6778 71.7391 52.1737 71.7391C57.6696 71.7391 62.6999 71.1838 66.4038 70.2579C68.2433 69.7979 69.8474 69.2245 71.031 68.5249C72.1054 67.8898 73.3693 66.825 73.3693 65.2174C73.3693 64.3169 72.6394 63.5869 71.7389 63.5869C70.8689 63.5869 70.158 64.2685 70.1109 65.1267C70.0744 65.1844 69.9198 65.3938 69.3718 65.7177C68.5752 66.1885 67.3142 66.6689 65.6129 67.0943C62.2356 67.9386 57.4834 68.4782 52.1737 68.4782C46.864 68.4782 42.1118 67.9386 38.7345 67.0943C37.0331 66.6689 35.7722 66.1885 34.9755 65.7177C34.4275 65.3938 34.273 65.1844 34.2365 65.1267ZM32.6085 73.3695C33.4785 73.3695 34.1895 74.0511 34.2365 74.9093C34.273 74.967 34.4275 75.1764 34.9755 75.5004C35.7722 75.9711 37.0331 76.4515 38.7345 76.8769C42.1118 77.7212 46.864 78.2608 52.1737 78.2608C57.4834 78.2608 62.2356 77.7212 65.6129 76.8769C67.3142 76.4515 68.5752 75.9711 69.3718 75.5004C69.9198 75.1764 70.0744 74.967 70.1109 74.9093C70.158 74.0511 70.8689 73.3695 71.7389 73.3695C72.6394 73.3695 73.3693 74.0995 73.3693 75C73.3693 76.6076 72.1054 77.6724 71.031 78.3075C69.8474 79.0071 68.2433 79.5805 66.4038 80.0405C62.6999 80.9664 57.6696 81.5217 52.1737 81.5217C46.6778 81.5217 41.6474 80.9664 37.9436 80.0405C36.1041 79.5805 34.4999 79.0071 33.3164 78.3075C32.2419 77.6724 30.978 76.6076 30.978 75C30.978 74.0995 31.708 73.3695 32.6085 73.3695ZM32.6085 83.1521C33.4785 83.1521 34.1895 83.8337 34.2365 84.6919C34.273 84.7496 34.4275 84.959 34.9755 85.283C35.7722 85.7537 37.0331 86.2342 38.7345 86.6595C42.1118 87.5038 46.864 88.0434 52.1737 88.0434C57.4834 88.0434 62.2356 87.5038 65.6129 86.6595C67.3142 86.2342 68.5752 85.7537 69.3718 85.283C69.9198 84.959 70.0744 84.7496 70.1109 84.6919C70.158 83.8337 70.8689 83.1521 71.7389 83.1521C72.6394 83.1521 73.3693 83.8821 73.3693 84.7826C73.3693 86.3902 72.1054 87.455 71.031 88.0901C69.8474 88.7897 68.2433 89.3631 66.4038 89.8231C62.6999 90.749 57.6696 91.3043 52.1737 91.3043C46.6778 91.3043 41.6474 90.749 37.9436 89.8231C36.1041 89.3631 34.4999 88.7897 33.3164 88.0901C32.2419 87.455 30.978 86.3902 30.978 84.7826C30.978 83.8821 31.708 83.1521 32.6085 83.1521Z" fill="#EF3124"/>
<path fill-rule="evenodd" clip-rule="evenodd" d="M34.2389 55.6262V93.9258C34.2876 93.9692 34.3429 94.0166 34.4052 94.0677C34.8392 94.4228 35.623 94.9569 36.9192 95.5124C39.5168 96.6255 44.1766 97.8261 52.1737 97.8261C60.1708 97.8261 64.8306 96.6255 67.4282 95.5124C68.7244 94.9569 69.5081 94.4228 69.9422 94.0677C70.0044 94.0166 70.0597 93.9692 70.1085 93.9258V55.6262C70.1002 55.6119 70.0897 55.5946 70.0765 55.5749C69.9619 55.4029 69.5936 54.9622 68.5641 54.4474C66.4591 53.395 61.873 52.174 52.1737 52.174C42.4744 52.174 37.8883 53.395 35.7832 54.4474C34.7538 54.9622 34.3855 55.4029 34.2709 55.5749C34.2576 55.5946 34.2472 55.6119 34.2389 55.6262ZM71.7389 55.4348C73.3693 55.4348 73.3693 55.4316 73.3693 55.4285V55.4218L73.3692 55.4082L73.3685 55.3796C73.3679 55.3597 73.3669 55.3385 73.3654 55.3158C73.3625 55.2706 73.3576 55.2199 73.3503 55.1643C73.3354 55.0531 73.3102 54.9227 73.2684 54.7768C73.1843 54.4823 73.0371 54.1372 72.7899 53.7661C72.2931 53.0211 71.4386 52.239 70.0224 51.5309C67.2361 50.1377 62.0396 48.9131 52.1737 48.9131C42.3078 48.9131 37.1112 50.1377 34.325 51.5309C32.9088 52.239 32.0543 53.0211 31.5575 53.7661C31.3103 54.1372 31.1631 54.4823 31.0789 54.7768C31.0372 54.9227 31.0119 55.0531 30.9971 55.1643C30.9898 55.2199 30.9849 55.2706 30.9819 55.3158C30.9805 55.3385 30.9795 55.3597 30.9788 55.3796L30.9782 55.4082L30.978 55.4218V55.4285C30.978 55.4316 30.978 55.4348 32.6085 55.4348H30.978V94.5653C30.978 94.8871 31.0732 95.2018 31.2518 95.4697L32.6085 94.5653C31.2518 95.4697 31.2529 95.4711 31.2539 95.4728L31.2562 95.476L31.2607 95.4827L31.2709 95.4975L31.2955 95.5323C31.3137 95.5577 31.3357 95.5874 31.3622 95.6211C31.4147 95.6888 31.4836 95.7723 31.5713 95.8693C31.7473 96.0636 31.9974 96.3108 32.3403 96.5914C33.0272 97.1534 34.0776 97.8421 35.6347 98.5094C38.7436 99.842 43.8665 101.087 52.1737 101.087C60.4809 101.087 65.6037 99.842 68.7127 98.5094C70.2697 97.8421 71.3202 97.1534 72.0071 96.5914C72.35 96.3108 72.6001 96.0636 72.776 95.8693C72.8637 95.7723 72.9327 95.6888 72.9854 95.6211C73.0116 95.5874 73.0336 95.5577 73.0519 95.5323L73.0765 95.4975L73.0866 95.4827L73.0912 95.476L73.0935 95.4728C73.0945 95.4711 73.0956 95.4697 71.7389 94.5653L73.0956 95.4697C73.2741 95.2018 73.3693 94.8871 73.3693 94.5653V55.4348H71.7389Z" fill="#EF3124"/>
<path fill-rule="evenodd" clip-rule="evenodd" d="M78.2608 63.5869C79.1308 63.5869 79.8418 64.2684 79.8888 65.1267C79.9253 65.1844 80.0799 65.3938 80.6279 65.7177C81.4245 66.1884 82.6855 66.6689 84.3868 67.0943C87.7641 67.9385 92.5164 68.4782 97.826 68.4782C103.136 68.4782 107.888 67.9385 111.265 67.0943C112.967 66.6689 114.228 66.1884 115.024 65.7177C115.572 65.3938 115.727 65.1844 115.763 65.1267C115.81 64.2684 116.521 63.5869 117.391 63.5869C118.292 63.5869 119.022 64.3169 119.022 65.2173C119.022 66.825 117.758 67.8898 116.683 68.5248C115.5 69.2245 113.896 69.7979 112.056 70.2578C108.352 71.1838 103.322 71.7391 97.826 71.7391C92.3302 71.7391 87.2998 71.1838 83.5959 70.2578C81.7565 69.7979 80.1523 69.2245 78.9687 68.5248C77.8943 67.8898 76.6304 66.825 76.6304 65.2173C76.6304 64.3169 77.3603 63.5869 78.2608 63.5869ZM79.8888 74.9093C79.8418 74.051 79.1308 73.3695 78.2608 73.3695C77.3603 73.3695 76.6304 74.0995 76.6304 75C76.6304 76.6076 77.8943 77.6724 78.9687 78.3075C80.1523 79.0071 81.7565 79.5805 83.5959 80.0404C87.2998 80.9664 92.3302 81.5217 97.826 81.5217C103.322 81.5217 108.352 80.9664 112.056 80.0404C113.896 79.5805 115.5 79.0071 116.683 78.3075C117.758 77.6724 119.022 76.6076 119.022 75C119.022 74.0995 118.292 73.3695 117.391 73.3695C116.521 73.3695 115.81 74.051 115.763 74.9093C115.727 74.967 115.572 75.1764 115.024 75.5003C114.228 75.971 112.967 76.4515 111.265 76.8769C107.888 77.7211 103.136 78.2608 97.826 78.2608C92.5164 78.2608 87.7641 77.7211 84.3868 76.8769C82.6855 76.4515 81.4245 75.971 80.6279 75.5003C80.0799 75.1764 79.9253 74.967 79.8888 74.9093ZM79.8888 84.6919C79.8418 83.8336 79.1308 83.1521 78.2608 83.1521C77.3603 83.1521 76.6304 83.8821 76.6304 84.7826C76.6304 86.3902 77.8943 87.455 78.9687 88.0901C80.1523 88.7897 81.7565 89.3631 83.5959 89.823C87.2998 90.749 92.3302 91.3043 97.826 91.3043C103.322 91.3043 108.352 90.749 112.056 89.823C113.896 89.3631 115.5 88.7897 116.683 88.0901C117.758 87.455 119.022 86.3902 119.022 84.7826C119.022 83.8821 118.292 83.1521 117.391 83.1521C116.521 83.1521 115.81 83.8336 115.763 84.6919C115.727 84.7496 115.572 84.959 115.024 85.2829C114.228 85.7536 112.967 86.2341 111.265 86.6595C107.888 87.5038 103.136 88.0434 97.826 88.0434C92.5164 88.0434 87.7641 87.5038 84.3868 86.6595C82.6855 86.2341 81.4245 85.7536 80.6279 85.2829C80.0799 84.959 79.9253 84.7496 79.8888 84.6919Z" fill="#EF3124"/>
<path fill-rule="evenodd" clip-rule="evenodd" d="M79.8912 65.4088V93.9258C79.94 93.9692 79.9953 94.0166 80.0575 94.0676C80.4916 94.4227 81.2753 94.9569 82.5715 95.5124C85.1691 96.6255 89.8289 97.8261 97.826 97.8261C105.823 97.8261 110.483 96.6255 113.081 95.5124C114.377 94.9569 115.161 94.4227 115.595 94.0676C115.657 94.0166 115.712 93.9692 115.761 93.9258V65.4088C115.753 65.3945 115.742 65.3772 115.729 65.3575C115.614 65.1855 115.246 64.7448 114.216 64.23C112.111 63.1776 107.525 61.9565 97.826 61.9565C88.1267 61.9565 83.5406 63.1776 81.4356 64.23C80.4061 64.7448 80.0378 65.1855 79.9232 65.3575C79.91 65.3772 79.8996 65.3945 79.8912 65.4088ZM117.391 65.2174C119.022 65.2174 119.022 65.2142 119.022 65.2111V65.2044L119.022 65.1908L119.021 65.1621C119.02 65.1423 119.019 65.1211 119.018 65.0984C119.015 65.0532 119.01 65.0025 119.003 64.9469C118.988 64.8357 118.963 64.7053 118.921 64.5594C118.837 64.2649 118.689 63.9198 118.442 63.5487C117.945 62.8037 117.091 62.0216 115.675 61.3135C112.888 59.9203 107.692 58.6957 97.826 58.6957C87.9601 58.6957 82.7636 59.9203 79.9773 61.3135C78.5611 62.0216 77.7066 62.8037 77.2098 63.5487C76.9627 63.9198 76.8154 64.2649 76.7313 64.5594C76.6896 64.7053 76.6643 64.8357 76.6494 64.9469C76.6421 65.0025 76.6372 65.0532 76.6343 65.0984C76.6328 65.1211 76.6318 65.1423 76.6312 65.1621L76.6305 65.1908L76.6304 65.2044V65.2111C76.6304 65.2142 76.6304 65.2174 78.2608 65.2174H76.6304V94.5652C76.6304 94.8871 76.7256 95.2018 76.9041 95.4696L78.2608 94.5652C76.9041 95.4696 76.9053 95.4711 76.9062 95.4727L76.9085 95.476L76.9131 95.4827L76.9232 95.4975L76.9478 95.5323C76.9661 95.5577 76.9881 95.5874 77.0145 95.6211C77.067 95.6888 77.136 95.7723 77.2237 95.8693C77.3996 96.0636 77.6497 96.3108 77.9926 96.5914C78.6795 97.1534 79.73 97.8421 81.2871 98.5094C84.396 99.842 89.5188 101.087 97.826 101.087C106.133 101.087 111.256 99.842 114.365 98.5094C115.922 97.8421 116.973 97.1534 117.659 96.5914C118.002 96.3108 118.252 96.0636 118.428 95.8693C118.516 95.7723 118.585 95.6888 118.638 95.6211C118.664 95.5874 118.686 95.5577 118.704 95.5323L118.729 95.4975L118.739 95.4827L118.744 95.476L118.746 95.4727C118.747 95.4711 118.748 95.4696 117.391 94.5652L118.748 95.4696C118.926 95.2018 119.022 94.8871 119.022 94.5652V65.2174H117.391Z" fill="#EF3124"/>
</svg>
