<svg width="150" height="150" viewBox="0 0 150 150" fill="none" xmlns="http://www.w3.org/2000/svg">
<path d="M73.3691 102.717V71.7391" stroke="#EF3124" stroke-width="2" stroke-linecap="round"/>
<path d="M86.4131 102.717V65.2174" stroke="#EF3124" stroke-width="2" stroke-linecap="round"/>
<path d="M99.4561 102.717V58.6957" stroke="#EF3124" stroke-width="2" stroke-linecap="round"/>
<path d="M47.2827 102.717V84.7827" stroke="#EF3124" stroke-width="2" stroke-linecap="round"/>
<path d="M60.3262 102.717V78.2609" stroke="#EF3124" stroke-width="2" stroke-linecap="round"/>
<path fill-rule="evenodd" clip-rule="evenodd" d="M71.0097 57.2774L38.9473 72.9153L71.0097 57.2774ZM82.6996 51.5759L108.339 39.0708L82.6996 51.5759Z" stroke="#EF3124" stroke-width="2" stroke-linecap="square"/>
<path d="M76.6301 60.4893C80.232 60.4893 83.1519 57.5694 83.1519 53.9675C83.1519 50.3657 80.232 47.4458 76.6301 47.4458C73.0283 47.4458 70.1084 50.3657 70.1084 53.9675C70.1084 57.5694 73.0283 60.4893 76.6301 60.4893Z" stroke="#EF3124" stroke-width="2" stroke-linecap="square"/>
<path fill-rule="evenodd" clip-rule="evenodd" d="M148.369 75.0008C148.369 115.522 115.521 148.37 74.9999 148.37C34.4785 148.37 1.63037 115.522 1.63037 75.0008C1.63037 34.4794 34.4785 1.63123 74.9999 1.63123C115.521 1.63123 148.369 34.4794 148.369 75.0008Z" stroke="#EF3124" stroke-width="2"/>
</svg>
