<svg width="150" height="150" viewBox="0 0 150 150" fill="none" xmlns="http://www.w3.org/2000/svg">
<path d="M104.348 42.3913C104.348 30.6853 91.2085 21.1957 75.0002 21.1957C58.7919 21.1957 45.6523 30.6853 45.6523 42.3913" stroke="#EF3124" stroke-width="2"/>
<path fill-rule="evenodd" clip-rule="evenodd" d="M52.4942 41.0808L44.0222 45.9721L39.1309 37.5" fill="#EF3124"/>
<path d="M44.1816 105.978C44.1816 117.684 57.3211 127.174 73.5295 127.174C89.7378 127.174 102.877 117.684 102.877 105.978" stroke="#EF3124" stroke-width="2"/>
<path fill-rule="evenodd" clip-rule="evenodd" d="M96.0361 107.289L104.508 102.397L109.399 110.87" fill="#EF3124"/>
<path d="M102.718 60.6107V86.7381" stroke="#EF3124" stroke-width="2" stroke-linecap="round"/>
<path d="M97.8262 82.7312H104.985C107.335 82.7312 109.239 80.8267 109.239 78.4772C109.239 76.1278 107.335 74.2233 104.985 74.2233H102.08C99.7307 74.2233 97.8262 72.3188 97.8262 69.9693C97.8262 67.62 99.7307 65.7153 102.08 65.7153H107.609" stroke="#EF3124" stroke-width="2" stroke-linecap="round"/>
<path d="M102.718 92.9348C113.523 92.9348 122.283 84.1751 122.283 73.3695C122.283 62.564 113.523 53.8043 102.718 53.8043C91.912 53.8043 83.1523 62.564 83.1523 73.3695C83.1523 84.1751 91.912 92.9348 102.718 92.9348Z" stroke="#EF3124" stroke-width="2"/>
<path d="M47.283 94.5653C58.0885 94.5653 66.8482 85.8056 66.8482 75C66.8482 64.1945 58.0885 55.4348 47.283 55.4348C36.4774 55.4348 27.7178 64.1945 27.7178 75C27.7178 85.8056 36.4774 94.5653 47.283 94.5653Z" stroke="#EF3124" stroke-width="2"/>
<path fill-rule="evenodd" clip-rule="evenodd" d="M148.37 75.0001C148.37 115.521 115.522 148.37 75.0004 148.37C34.4791 148.37 1.63086 115.521 1.63086 75.0001C1.63086 34.4787 34.4791 1.63049 75.0004 1.63049C115.522 1.63049 148.37 34.4787 148.37 75.0001Z" stroke="#EF3124" stroke-width="2"/>
<path d="M44.0215 65.3813V83.1523" stroke="#EF3124" stroke-width="2" stroke-linecap="round"/>
<path d="M40.7607 78.2609H50.5433" stroke="#EF3124" stroke-width="2" stroke-linecap="round"/>
<path d="M40.7607 73.3695H48.9129" stroke="#EF3124" stroke-width="2" stroke-linecap="round"/>
<path fill-rule="evenodd" clip-rule="evenodd" d="M44.0215 65.2174V73.3696H49.728C51.9791 73.3696 53.8041 71.5446 53.8041 69.2935C53.8041 67.0424 51.9791 65.2174 49.728 65.2174H44.0215Z" stroke="#EF3124" stroke-width="2"/>
</svg>
